<svg xmlns="http://www.w3.org/2000/svg" viewBox="0 0 94 94"><title>icon-alertArtboard 1</title><path d="M88.6,77.1,51.3,12.3c-1.1-1.9-2.6-2.9-4.3-2.9s-3.2,1.1-4.3,2.9L5.4,77.2A5.1,5.1,0,0,0,5,82.4a5.1,5.1,0,0,0,4.7,2.3H84.3A5.1,5.1,0,0,0,89,82.4,5.2,5.2,0,0,0,88.6,77.1ZM43.6,28.2a5.4,5.4,0,0,1,3.5-1.1,5.5,5.5,0,0,1,3.3.9,3.2,3.2,0,0,1,1.2,2.8V55.8a3.6,3.6,0,0,1-1.4,3.1,5.1,5.1,0,0,1-3.1,1c-3.3,0-4.9-1.5-4.9-4.4s-.1-24.1-.1-24.1A3.9,3.9,0,0,1,43.6,28.2Zm9.1,43.4A5,5,0,0,1,50.6,75a6.5,6.5,0,0,1-3.7,1.2,5.4,5.4,0,0,1-4.2-1.6,5.6,5.6,0,0,1-1.5-3.9,4.8,4.8,0,0,1,1.7-4,7,7,0,0,1,4.5-1.4,5.1,5.1,0,0,1,4.1,1.9A5.6,5.6,0,0,1,52.7,71.7Z" fill="#fe7600"/></svg>