<svg xmlns="http://www.w3.org/2000/svg" viewBox="0 0 94 94"><title>icon-infoArtboard 1</title><path d="M47,8A39,39,0,1,0,86,47,39,39,0,0,0,47,8Z" fill="#17bed2"/><path d="M50.3,70.4a5.4,5.4,0,0,1-3.5,1.1,5.5,5.5,0,0,1-3.3-.9,3.2,3.2,0,0,1-1.2-2.8V42.9a3.6,3.6,0,0,1,1.4-3.1,5.1,5.1,0,0,1,3.1-1c3.3,0,4.9,1.5,4.9,4.4s.1,24.1.1,24.1A3.9,3.9,0,0,1,50.3,70.4Z" fill="#fff"/><path d="M51,32a7,7,0,0,1-4.5,1.4,5.1,5.1,0,0,1-4.1-1.9A5.6,5.6,0,0,1,41.2,27a5.1,5.1,0,0,1,2.2-3.4,6.5,6.5,0,0,1,3.7-1.2A5.4,5.4,0,0,1,51.3,24,5.6,5.6,0,0,1,52.7,28,4.8,4.8,0,0,1,51,32Z" fill="#fff"/></svg>