<?xml version="1.0" encoding="utf-8"?>
<svg version="1.1" id="Layer_1" xmlns="http://www.w3.org/2000/svg" xmlns:xlink="http://www.w3.org/1999/xlink" x="0px" y="0px"
	 viewBox="0 0 122.5 86.3" style="enable-background:new 0 0 122.5 86.3;" xml:space="preserve">
<style type="text/css">
	.st0{fill:#00BCD5;}
	.st1{fill:#FFFFFF;}
</style>
<g>
	<path class="st0" d="M122.5,22c0-12-10.1-21.8-22.7-21.8H33.2C20.9,0.2,10.6,10,10.6,22c0,12,10.3,21.8,22.7,21.8h57.2l-1.9,8.8
		l21.2-10.9h-0.2C117.2,38,122.5,30.5,122.5,22"/>
	<path class="st1" d="M21.4,22.5c-0.2-0.4-0.4-0.7-0.4-1.2c0-0.9,0.5-1.2,1.8-1.2h4.1v-5c0-0.5,0.2-0.9,0.4-1.1
		c0.4-0.2,0.7-0.4,1.1-0.4c0.9,0,1.4,0.5,1.4,1.6V20H34c0.9,0,1.4,0.5,1.4,1.4c0,0.9-0.5,1.4-1.6,1.4h-4.2v5c0,0.9-0.5,1.4-1.6,1.2
		c-0.9,0-1.2-0.5-1.2-1.6v-4.8h-4.4C21.9,23,21.6,22.9,21.4,22.5 M36.3,17.1c0-0.5,0.2-0.9,0.4-1.1c0.4-0.4,0.7-0.4,1.1-0.4h1.6
		v-2.3c0-1.4,0.7-2.1,1.8-2.1c0.9,0,1.4,0.5,1.4,1.6v2.9h2.7c0.5,0,0.9,0.2,1.1,0.4c0.2,0.2,0.4,0.7,0.4,1.1c0,1.1-0.4,1.4-1.2,1.4
		h-2.8v5.7c0,1.1,0.2,1.8,0.4,2.3c0.2,0.5,0.7,0.7,1.2,0.7c0.4,0,0.5,0,0.9-0.2c0.4-0.2,0.5-0.2,0.7-0.2c0.4,0,0.7,0.2,0.9,0.4
		c0.2,0.4,0.4,0.7,0.4,1.1c0,0.7-0.2,1.2-0.7,1.4c-0.5,0.4-1.4,0.5-2.3,0.5c-3,0-4.6-1.8-4.6-5.7v-6.1h-1.8
		C36.6,18.6,36.3,18,36.3,17.1 M63.4,24.8c0,1.6,0,2.9,0.2,4.1c0,1.1-0.5,1.4-1.8,1.4c-0.5,0-0.9-0.2-1.1-0.5
		c-0.2-0.4-0.4-1.1-0.5-2c-0.9,1.8-2.5,2.5-4.6,2.5c-1.9,0-3.7-0.7-5-2.1c-1.2-1.4-1.9-3-1.9-5c0-2.3,0.7-4.3,2.1-5.7
		c1.4-1.4,3-2.3,5.1-2.3c1.9,0,3.4,0.7,4.2,2.3V17c0-0.4,0-0.5,0.2-0.7c0.2-0.7,0.7-1.1,1.4-1.1c1.1,0,1.6,0.7,1.6,2L63.4,24.8
		L63.4,24.8z M53.4,26.2c0.7,0.7,1.6,1.2,2.7,1.2c1.2,0,2.1-0.4,3-1.2c0.7-0.9,1.2-2,1.2-3.2c0-1.4-0.4-2.5-1.2-3.2
		c-0.7-0.7-1.8-1.2-2.8-1.2c-1.1,0-2.1,0.4-2.8,1.4c-0.7,0.9-1.1,2.1-1.1,3.4C52.2,24.5,52.7,25.4,53.4,26.2L53.4,26.2z M68.1,15.7
		c0.4-0.4,0.7-0.4,1.2-0.4c0.7,0,1.2,0.4,1.2,1.1l0.2,1.8c0.4-0.9,1.1-1.8,1.8-2.3c0.7-0.5,1.6-0.9,2.5-0.9c1.1,0,1.6,0.5,1.6,1.6
		c0,0.5-0.2,0.9-0.4,1.2c-0.2,0.4-0.5,0.5-1.1,0.5h-0.5c-1.1,0-1.9,0.5-2.7,1.4C71.3,20.7,71,22,71,23.6v5.2c0,1.1-0.5,1.4-1.8,1.4
		c-0.5,0-1.1-0.2-1.2-0.4c-0.4-0.4-0.4-0.7-0.4-1.6c0-5,0.2-7.7,0.2-7.9V17C67.8,16.4,68,16.1,68.1,15.7 M92.8,15.9v12.9
		c0,1.1-0.5,1.6-1.6,1.6c-0.9,0-1.4-0.4-1.6-1.2l-0.2-1.4c-1.1,1.8-2.7,2.7-4.6,2.7c-2.1,0-3.7-0.7-5-2.1c-1.2-1.4-1.9-3-1.9-5
		c0-2.3,0.7-4.1,2.1-5.7c1.4-1.4,3.2-2.1,5.3-2.1c0.9,0,1.6,0.2,2.3,0.5c0.7,0.4,1.2,0.9,1.6,1.6V8.9c0-1.2,0.5-2,1.8-2
		c0.5,0,1.1,0.2,1.4,0.4c0.4,0.2,0.5,0.7,0.5,1.2L92.8,15.9L92.8,15.9z M82.5,26.1c0.7,0.9,1.6,1.2,2.7,1.2c1.1,0,2.1-0.4,2.8-1.2
		c0.7-0.9,1.2-2,1.2-3.2c0-1.4-0.4-2.5-1.1-3.2c-0.7-0.9-1.6-1.2-2.8-1.2c-1.1,0-2.1,0.4-2.8,1.2c-0.7,0.9-1.2,2-1.2,3.4
		C81.4,24.3,81.8,25.4,82.5,26.1L82.5,26.1z M100.7,26.2c0.7,0.7,1.6,1.1,2.7,1.1c1.1,0,2.1-0.4,3-0.9c0.5-0.4,0.9-0.4,1.2-0.4
		s0.7,0.2,1.1,0.5c0.4,0.4,0.4,0.7,0.4,1.1c0,0.5-0.4,1.1-0.9,1.4c-1.2,0.9-3,1.2-5.1,1.2c-1.9,0-3.5-0.7-5-2.1
		c-1.4-1.4-2.1-3-2.1-5c0-2.3,0.7-4.3,2.1-5.7c1.4-1.4,3.2-2.3,5.1-2.3c1.8,0,3.4,0.5,4.4,1.8c1.2,1.2,1.8,2.5,1.8,4.1
		c0,0.9-0.2,1.6-0.5,2c-0.4,0.4-0.9,0.5-1.9,0.5h-7.6C99.5,24.8,100,25.5,100.7,26.2 M100.7,19.1c-0.7,0.7-1.1,1.4-1.2,2.3
		c3,0,5.3,0,6.4-0.2c0.2,0,0.4-0.2,0.4-0.4c0-0.9-0.4-1.6-0.9-2.1c-0.5-0.5-1.2-0.9-2.1-0.9C102.3,18,101.4,18.4,100.7,19.1"/>
</g>
<g>
	<path d="M1,58.3c0-0.4,0.2-0.7,0.5-1s0.8-0.4,1.2-0.4c0.2,0,0.4,0,0.6,0.1s0.3,0.2,0.5,0.3s0.3,0.3,0.4,0.5s0.2,0.4,0.3,0.6
		s0.2,0.4,0.3,0.8s0.2,0.6,0.3,0.8L14,81.3c3.9-8.4,7-15.8,9.4-22c0.6-1.5,1.2-2.2,1.9-2.2c0.4,0,0.8,0.1,1.2,0.4s0.5,0.6,0.5,1
		c0,0.5-0.2,1.3-0.7,2.4c0,0.1-0.4,0.9-1.1,2.5s-1.5,3.3-2.3,5.2s-1.9,4.2-3,6.8s-2.2,4.9-3.2,6.9c-0.5,1.1-0.9,1.9-1.3,2.2
		s-0.8,0.5-1.6,0.5c-0.3,0-0.6,0-0.8-0.1s-0.4-0.2-0.6-0.5s-0.4-0.4-0.5-0.6s-0.3-0.5-0.5-1.1s-0.4-0.9-0.5-1.2L1.5,59.9
		C1.2,59.2,1,58.7,1,58.3z"/>
	<path d="M37.6,78.8c1.8,2,4.2,2.9,7.1,2.9c2.7,0,5.1-0.7,7.4-2.2c0.1,0,0.2-0.1,0.4-0.3c0.2-0.1,0.4-0.3,0.6-0.3
		c0.2-0.1,0.4-0.1,0.6-0.1c0.4,0,0.8,0.2,1.1,0.5c0.3,0.4,0.5,0.7,0.5,1.1c0,0.6-0.5,1.3-1.4,1.9c-2.5,1.8-5.8,2.7-9.7,2.7
		c-3.4,0-6.4-1.3-8.9-3.8s-3.8-5.5-3.9-9.1c0-4.1,1.3-7.7,3.9-10.7s5.7-4.6,9.4-4.6c3.1,0,5.9,1.1,8.1,3.3c2.3,2.2,3.4,4.7,3.4,7.4
		c0,0.8,0,1.4-0.1,1.8s-0.2,0.8-0.5,1.2c-0.3,0.4-0.7,0.7-1.4,0.9c-0.6,0.2-1.5,0.3-2.6,0.3c-1,0.1-3.6,0.1-7.9,0.1
		c-4.3,0-7.2,0-8.9,0C34.9,74.5,35.8,76.8,37.6,78.8z M38.2,62.7c-1.9,1.9-2.9,4-3.1,6.5c10.8-0.2,16.5-0.3,17.1-0.4
		c0.5-0.1,0.7-0.3,0.7-0.7c0-2.4-0.8-4.3-2.4-5.9s-3.4-2.3-5.5-2.3C42.3,59.9,40.1,60.8,38.2,62.7z"/>
	<path d="M66.1,57.1c1,0,1.5,0.6,1.5,1.8l0.1,5.1c1.1-2.4,2.5-4.2,4.3-5.4s3.6-1.8,5.4-1.8c1.5,0,2.3,0.6,2.3,1.7
		c0,1-0.6,1.6-1.7,1.6h-1.3c-2.4,0-4.5,1.1-6.3,3.4s-2.7,4.9-2.7,8c0,4.8,0,8.7-0.1,11.7c0,1.1-0.6,1.7-1.7,1.7
		c-0.7,0-1.1-0.2-1.4-0.6s-0.3-1.2-0.3-2.2c0.2-7.8,0.3-13,0.3-15.7c0-0.7,0-1.9-0.1-3.6s-0.1-2.9-0.1-3.7
		C64.4,57.7,64.9,57.1,66.1,57.1z"/>
</g>
</svg>
